<?xml version="1.0" encoding="utf-8"?>
<!-- Generator: Adobe Illustrator 22.0.1, SVG Export Plug-In . SVG Version: 6.00 Build 0)  -->
<svg version="1.1" id="Capa_1" xmlns="http://www.w3.org/2000/svg" xmlns:xlink="http://www.w3.org/1999/xlink" x="0px" y="0px"
	 viewBox="0 0 300 300" style="enable-background:new 0 0 300 300;" xml:space="preserve">
<style type="text/css">
	.st0{fill:#65bfff;}
</style>
<g>
	<path class="st0" d="M150,0C67.2,0,0,67.2,0,150s67.2,150,150,150s150-67.2,150-150S232.8,0,150,0z M150,275c-69,0-125-56-125-125
		S81,25,150,25s125,56,125,125S219,275,150,275z"/>
	<path class="st0" d="M81.1,233.7L81.1,233.7c0-6.9,5.6-12.5,12.5-12.5h112.8c6.9,0,12.5,5.6,12.5,12.5v0c0,6.9-5.6,12.5-12.5,12.5
		H93.6C86.7,246.2,81.1,240.6,81.1,233.7z"/>
	<path class="st0" d="M206.3,143.5L206.3,143.5c-4.9-4.9-12.8-4.9-17.7,0l-26.1,26.1v-119c0-6.9-5.6-12.5-12.5-12.5
		c-6.9,0-12.5,5.6-12.5,12.5v119l-26.1-26.1c-4.9-4.9-12.8-4.9-17.7,0v0c-4.9,4.9-4.9,12.8,0,17.7l47.1,47.1c2.3,2.5,5.5,4,9.1,4
		s6.9-1.5,9.1-4l47.1-47.1C211.2,156.3,211.2,148.4,206.3,143.5z"/>
</g>
</svg>
