<?xml version="1.0" encoding="utf-8"?>
<!-- Generator: Adobe Illustrator 22.0.1, SVG Export Plug-In . SVG Version: 6.00 Build 0)  -->
<svg version="1.1" id="Capa_1" xmlns="http://www.w3.org/2000/svg" xmlns:xlink="http://www.w3.org/1999/xlink" x="0px" y="0px"
	 viewBox="0 0 182.5 175.5" style="enable-background:new 0 0 182.5 175.5;" xml:space="preserve">
<style type="text/css">
	.st0{fill:#FFFFFF;}
</style>
<g>
	<path class="st0" d="M65.8,0v155.1c-39.5,0-63-24.5-65.6-67.3C0.1,89.6,0,91.4,0,93.3c0,45.4,33.4,82.2,74.5,82.2l0,0
		c6.5,0,11.7-5.2,11.7-11.7V0H65.8z"/>
	<path class="st0" d="M116.6,155.4v-135c39.5,0,63.1,24.5,65.7,67.3c0.1-1.8,0.2-3.6,0.2-5.5C182.5,36.8,149,0,107.9,0h0
		c-6.5,0-11.7,5.2-11.7,11.7v152.1c0,6.5,5.2,11.7,11.7,11.7h0c41.1,0,74.6-36.8,74.6-82.2c0-1.9-0.1-3.7-0.2-5.5
		C179.7,130.6,156.1,155.4,116.6,155.4z"/>
</g>
</svg>
