<?xml version="1.0" encoding="utf-8"?>
<!-- Generator: Adobe Illustrator 22.0.1, SVG Export Plug-In . SVG Version: 6.00 Build 0)  -->
<svg version="1.1" id="Capa_1" xmlns="http://www.w3.org/2000/svg" xmlns:xlink="http://www.w3.org/1999/xlink" x="0px" y="0px"
	 viewBox="0 0 227.4 227.4" style="enable-background:new 0 0 227.4 227.4;" xml:space="preserve">
<style type="text/css">
	.st0{fill:none;stroke:#FFFFFF;stroke-width:10;stroke-miterlimit:10;}
	.st1{fill:#FFFFFF;}
</style>
<circle class="st0" cx="113.7" cy="113.7" r="108.7"/>
<path class="st1" d="M98,37.7v152.8c-39.5,0-71.8-33.9-74.4-76.7c-0.1,1.8-0.2,3.6-0.2,5.5c0,45.4,33.4,82.2,74.5,82.2l0,0
	c6.5,0,11.7-5.2,11.7-11.7V26C103.3,26,98,31.3,98,37.7z"/>
<path class="st1" d="M129.3,190.4V36.9c39.5,0,71.8,33.9,74.4,76.7c0.1-1.8,0.2-3.6,0.2-5.5c0-45.4-33.5-82.2-74.6-82.2h0
	c-6.5,0-11.7,5.2-11.7,11.7v152.1c0,6.5,5.2,11.7,11.7,11.7h0c41.1,0,74.6-36.8,74.6-82.2c0-1.9-0.1-3.7-0.2-5.5
	C201.1,156.5,168.8,190.4,129.3,190.4z"/>
</svg>
