<?xml version="1.0" encoding="utf-8"?>
<!-- Generator: Adobe Illustrator 22.0.1, SVG Export Plug-In . SVG Version: 6.00 Build 0)  -->
<svg version="1.1" id="wrapper-CAC" xmlns="http://www.w3.org/2000/svg" xmlns:xlink="http://www.w3.org/1999/xlink" x="0px"
	 y="0px" viewBox="0 0 519 30.9" style="enable-background:new 0 0 519 30.9;" xml:space="preserve">
<style type="text/css">
	.st0{fill:#FFFFFF;}
	.st1{fill:#D9D9D9;stroke:#FFFFFF;stroke-width:2;stroke-miterlimit:10;}
	.st2{fill:#00A4EB;}
	.st3{fill:url(#shadow_1_);}
</style>
<g id="custom-animated-checkbox_1_">
	<g id="Custom">
		<path id="C" class="st0" d="M13.8,29.2c-1.9,0-3.8-0.4-5.5-1.1S5.1,26.3,3.9,25c-1.3-1.3-2.2-2.8-3-4.6c-0.6-1.7-1-3.6-1-5.7
			c0-2,0.4-3.9,1.1-5.6s1.7-3.3,3-4.6s2.7-2.3,4.4-3.1c1.7-0.7,3.5-1.1,5.5-1.1c1.8,0,3.4,0.2,4.8,0.7c1.3,0.5,2.7,1.3,4,2.4
			c0.1,0.2,0.2,0.3,0.3,0.5c0.1,0.2,0.2,0.3,0.2,0.5s0.1,0.3,0.1,0.6c0,0.5-0.2,0.8-0.5,1.1c-0.3,0.3-0.7,0.5-1.2,0.5
			s-0.9-0.1-1.3-0.4c-0.9-0.8-1.8-1.4-2.8-1.8c-0.9-0.5-2.1-0.7-3.7-0.7c-1.4,0-2.7,0.3-4,0.9C8.6,5.2,7.5,6,6.5,7
			c-0.9,1-1.7,2.2-2.2,3.5s-0.8,2.8-0.8,4.3s0.3,3,0.8,4.3c0.5,1.3,1.3,2.5,2.2,3.5s2,1.8,3.3,2.4c1.2,0.6,2.6,0.8,4,0.8
			c1.2,0,2.4-0.2,3.5-0.6s2.1-1,3.1-1.7c0.4-0.3,0.9-0.5,1.3-0.4c0.4,0,0.8,0.2,1.1,0.5c0.3,0.3,0.4,0.7,0.4,1.2
			c0,0.2,0,0.5-0.1,0.7s-0.2,0.4-0.4,0.6c-1.3,1-2.7,1.8-4.2,2.3C17,28.9,15.4,29.2,13.8,29.2z"/>
		<path id="u" class="st0" d="M37.1,29c-1.7,0-3.1-0.4-4.4-1.1c-1.3-0.7-2.3-1.7-3.1-3.1c-0.8-1.4-1.1-3-1.1-5v-8.9
			c0-0.5,0.2-1,0.5-1.3s0.8-0.5,1.3-0.5s1,0.2,1.3,0.5s0.5,0.8,0.5,1.3v8.9c0,1.3,0.3,2.5,0.8,3.3c0.5,0.9,1.2,1.5,2.1,1.9
			c0.9,0.4,1.8,0.6,2.9,0.6c1,0,1.9-0.2,2.8-0.6c0.8-0.4,1.4-1,1.9-1.7s0.7-1.5,0.7-2.3h2.3c0,1.5-0.4,2.8-1.1,4
			c-0.7,1.2-1.7,2.1-3,2.8C40.1,28.6,38.7,29,37.1,29z M45,28.8c-0.5,0-1-0.2-1.3-0.5s-0.5-0.8-0.5-1.3V10.9c0-0.6,0.2-1,0.5-1.3
			s0.8-0.5,1.3-0.5c0.6,0,1,0.2,1.3,0.5s0.5,0.8,0.5,1.3V27c0,0.5-0.2,1-0.5,1.3C46,28.6,45.6,28.8,45,28.8z"/>
		<path id="s" class="st0" d="M60.5,29c-1.7,0-3.2-0.3-4.7-0.8c-1.4-0.5-2.5-1.2-3.3-2c-0.4-0.4-0.5-0.8-0.5-1.3
			c0.1-0.5,0.3-0.9,0.7-1.2c0.5-0.4,1-0.5,1.4-0.5c0.5,0.1,0.9,0.3,1.2,0.6c0.4,0.5,1.1,0.9,2,1.3s1.9,0.6,3,0.6
			c1.4,0,2.5-0.2,3.2-0.7s1.1-1,1.1-1.8c0-0.7-0.3-1.3-1-1.9c-0.7-0.5-2-1-3.9-1.3c-2.4-0.5-4.2-1.2-5.3-2.2s-1.6-2.1-1.6-3.5
			c0-1.2,0.4-2.2,1.1-3c0.7-0.8,1.6-1.4,2.8-1.8c1.1-0.4,2.3-0.6,3.5-0.6c1.6,0,3,0.3,4.2,0.8s2.2,1.2,2.9,2.1
			c0.3,0.4,0.5,0.8,0.5,1.2s-0.2,0.8-0.6,1.1s-0.8,0.3-1.4,0.3c-0.5-0.1-1-0.3-1.3-0.6c-0.6-0.6-1.2-1-1.9-1.2s-1.5-0.3-2.4-0.3
			c-1.1,0-2,0.2-2.7,0.5c-0.7,0.4-1.1,0.9-1.1,1.6c0,0.4,0.1,0.8,0.3,1.2c0.2,0.3,0.7,0.7,1.3,0.9c0.7,0.3,1.7,0.5,3,0.8
			c1.8,0.4,3.2,0.8,4.3,1.4c1,0.6,1.8,1.2,2.3,1.9c0.5,0.7,0.7,1.6,0.7,2.5c0,1.1-0.3,2.1-0.9,3s-1.5,1.6-2.6,2.1
			C63.6,28.7,62.2,29,60.5,29z"/>
		<path id="t_1_" class="st0" d="M72.1,12.9c-0.5,0-0.9-0.1-1.2-0.4c-0.3-0.3-0.5-0.6-0.5-1.1s0.2-0.9,0.5-1.2s0.7-0.4,1.2-0.4h8.3
			c0.5,0,0.9,0.1,1.2,0.4c0.3,0.3,0.5,0.7,0.5,1.2c0,0.4-0.2,0.8-0.5,1.1s-0.7,0.4-1.2,0.4H72.1z M80.1,28.8c-1.2,0-2.3-0.3-3.2-0.9
			c-1-0.6-1.7-1.4-2.3-2.5c-0.6-1.1-0.8-2.2-0.8-3.6V4.7c0-0.5,0.2-1,0.5-1.3s0.8-0.5,1.3-0.5s1,0.2,1.3,0.5s0.4,0.7,0.4,1.3v17.2
			c0,1,0.3,1.8,0.8,2.4s1.2,1,1.9,1h1.2c0.4,0,0.8,0.2,1.1,0.5c0.3,0.3,0.4,0.8,0.4,1.3s-0.2,1-0.6,1.3s-0.9,0.5-1.5,0.5L80.1,28.8
			L80.1,28.8z"/>
		<path id="o_1_" class="st0" d="M96.3,29c-1.9,0-3.7-0.4-5.1-1.3c-1.5-0.9-2.7-2-3.5-3.5c-0.9-1.5-1.3-3.2-1.3-5.2s0.4-3.7,1.3-5.2
			s2-2.7,3.5-3.5C92.7,9.4,94.4,9,96.3,9s3.6,0.4,5.1,1.3c1.5,0.9,2.7,2,3.5,3.5c0.9,1.5,1.3,3.2,1.3,5.2c0,1.9-0.4,3.7-1.3,5.2
			c-0.8,1.5-2,2.7-3.5,3.5S98.2,29,96.3,29z M96.3,25.7c1.2,0,2.4-0.3,3.3-0.9c1-0.6,1.7-1.4,2.3-2.4c0.5-1,0.8-2.2,0.8-3.5
			s-0.3-2.5-0.8-3.5s-1.3-1.8-2.3-2.4c-1-0.6-2.1-0.9-3.3-0.9c-1.2,0-2.4,0.3-3.3,0.9c-1,0.6-1.7,1.4-2.3,2.4
			c-0.6,1-0.8,2.2-0.8,3.5s0.3,2.5,0.8,3.5c0.6,1,1.3,1.8,2.3,2.4C93.9,25.4,95,25.7,96.3,25.7z"/>
		<path id="m_1_" class="st0" d="M113.5,28.9c-0.5,0-1-0.2-1.3-0.5s-0.5-0.8-0.5-1.3v-16c0-0.6,0.2-1,0.5-1.3s0.8-0.5,1.3-0.5
			c0.6,0,1,0.2,1.3,0.5s0.5,0.8,0.5,1.3v16c0,0.5-0.2,1-0.5,1.3S114,28.9,113.5,28.9z M125.5,28.9c-0.5,0-1-0.2-1.3-0.5
			s-0.5-0.8-0.5-1.3V16.7c0-1.5-0.4-2.6-1.1-3.4c-0.7-0.7-1.7-1.1-2.9-1.1c-1.2,0-2.3,0.4-3.1,1.3c-0.8,0.9-1.2,2-1.2,3.3h-2.3
			c0-1.6,0.3-2.9,0.9-4.1s1.5-2.1,2.6-2.8s2.4-1,3.8-1s2.6,0.3,3.6,0.9c1.1,0.6,1.9,1.5,2.5,2.6c0.6,1.2,0.9,2.6,0.9,4.2v10.3
			c0,0.5-0.2,1-0.5,1.3C126.5,28.7,126.1,28.9,125.5,28.9z M137.5,28.9c-0.5,0-1-0.2-1.3-0.5s-0.5-0.8-0.5-1.3V16.7
			c0-1.5-0.4-2.6-1.1-3.4c-0.7-0.7-1.7-1.1-2.9-1.1s-2.3,0.4-3.1,1.3c-0.8,0.9-1.2,2-1.2,3.3h-3c0-1.6,0.3-2.9,1-4.1
			s1.6-2.1,2.8-2.8c1.2-0.7,2.6-1,4.2-1c1.4,0,2.6,0.3,3.6,0.9c1.1,0.6,1.9,1.5,2.5,2.6c0.6,1.2,0.9,2.6,0.9,4.2v10.3
			c0,0.5-0.2,1-0.5,1.3C138.5,28.7,138,28.9,137.5,28.9z"/>
	</g>
	<g id="animated">
		<path id="a" class="st0" d="M164.2,29c-1.8,0-3.3-0.4-4.7-1.3s-2.5-2.1-3.3-3.6S155,20.9,155,19s0.4-3.6,1.3-5.1
			c0.9-1.5,2.1-2.7,3.6-3.6c1.5-0.9,3.2-1.3,5.1-1.3s3.6,0.4,5,1.3c1.5,0.9,2.7,2.1,3.5,3.6c0.9,1.5,1.3,3.2,1.3,5.1h-1.4
			c0,1.9-0.4,3.6-1.2,5.1s-1.9,2.7-3.3,3.6C167.5,28.5,165.9,29,164.2,29z M164.9,25.7c1.2,0,2.3-0.3,3.3-0.9s1.7-1.4,2.3-2.4
			s0.8-2.2,0.8-3.4c0-1.3-0.3-2.5-0.8-3.5c-0.6-1-1.3-1.8-2.3-2.4c-1-0.6-2.1-0.9-3.3-0.9s-2.3,0.3-3.3,0.9c-1,0.6-1.7,1.4-2.3,2.4
			s-0.8,2.2-0.8,3.5s0.3,2.4,0.8,3.4c0.6,1,1.3,1.8,2.3,2.4S163.7,25.7,164.9,25.7z M173,28.9c-0.5,0-1-0.2-1.3-0.5
			s-0.5-0.8-0.5-1.3v-5.5l0.7-3.8l3,1.3v8c0,0.5-0.2,1-0.5,1.3C173.9,28.7,173.5,28.9,173,28.9z"/>
		<path id="n" class="st0" d="M182.1,28.9c-0.5,0-1-0.2-1.3-0.5s-0.5-0.8-0.5-1.3V11c0-0.6,0.2-1,0.5-1.3s0.8-0.5,1.3-0.5
			c0.6,0,1,0.2,1.3,0.5s0.5,0.8,0.5,1.3v16.1c0,0.5-0.2,1-0.5,1.3S182.6,28.9,182.1,28.9z M196.9,28.9c-0.5,0-1-0.2-1.3-0.5
			s-0.5-0.8-0.5-1.3v-8.9c0-1.4-0.3-2.5-0.8-3.3c-0.5-0.9-1.2-1.5-2-1.9c-0.9-0.4-1.8-0.6-2.9-0.6c-1,0-1.9,0.2-2.7,0.6
			c-0.8,0.4-1.5,1-1.9,1.6c-0.5,0.7-0.7,1.5-0.7,2.4h-2.3c0-1.5,0.4-2.9,1.1-4c0.7-1.2,1.7-2.1,3-2.8s2.7-1,4.3-1
			c1.7,0,3.1,0.4,4.4,1.1c1.3,0.7,2.3,1.7,3.1,3.1s1.1,3,1.1,5v8.9c0,0.5-0.2,1-0.5,1.3C197.9,28.7,197.4,28.9,196.9,28.9z"/>
		<path id="i" class="st0" d="M207,5.9c-0.6,0-1.2-0.2-1.7-0.7s-0.7-1-0.7-1.7s0.2-1.2,0.7-1.7s1-0.7,1.7-0.7s1.2,0.2,1.7,0.7
			s0.7,1,0.7,1.7s-0.2,1.2-0.7,1.7S207.7,5.9,207,5.9z M207,28.8c-0.5,0-1-0.2-1.3-0.5s-0.5-0.8-0.5-1.3V11c0-0.6,0.2-1,0.5-1.3
			s0.8-0.5,1.3-0.5c0.6,0,1,0.2,1.3,0.5s0.5,0.8,0.5,1.3v16c0,0.5-0.2,1-0.5,1.3S207.6,28.8,207,28.8z"/>
		<path id="m" class="st0" d="M217.5,28.9c-0.5,0-1-0.2-1.3-0.5s-0.5-0.8-0.5-1.3v-16c0-0.6,0.2-1,0.5-1.3s0.8-0.5,1.3-0.5
			c0.6,0,1,0.2,1.3,0.5s0.5,0.8,0.5,1.3v16c0,0.5-0.2,1-0.5,1.3S218.1,28.9,217.5,28.9z M229.5,28.9c-0.5,0-1-0.2-1.3-0.5
			s-0.5-0.8-0.5-1.3V16.7c0-1.5-0.4-2.6-1.1-3.4c-0.7-0.7-1.7-1.1-2.9-1.1s-2.3,0.4-3.1,1.3c-0.8,0.9-1.2,2-1.2,3.3h-2.3
			c0-1.6,0.3-2.9,0.9-4.1c0.6-1.2,1.5-2.1,2.6-2.8s2.4-1,3.8-1c1.4,0,2.6,0.3,3.6,0.9c1.1,0.6,1.9,1.5,2.5,2.6
			c0.6,1.2,0.9,2.6,0.9,4.2v10.3c0,0.5-0.2,1-0.5,1.3C230.5,28.7,230.1,28.9,229.5,28.9z M241.5,28.9c-0.5,0-1-0.2-1.3-0.5
			s-0.5-0.8-0.5-1.3V16.7c0-1.5-0.4-2.6-1.1-3.4c-0.7-0.7-1.7-1.1-2.9-1.1s-2.3,0.4-3.1,1.3c-0.8,0.9-1.2,2-1.2,3.3h-3
			c0-1.6,0.3-2.9,1-4.1s1.6-2.1,2.8-2.8s2.6-1,4.2-1c1.4,0,2.6,0.3,3.6,0.9c1.1,0.6,1.9,1.5,2.5,2.6c0.6,1.2,0.9,2.6,0.9,4.2v10.3
			c0,0.5-0.2,1-0.5,1.3C242.5,28.7,242.1,28.9,241.5,28.9z"/>
		<path id="o" class="st0" d="M257.7,29c-1.8,0-3.3-0.4-4.7-1.3s-2.5-2.1-3.3-3.6s-1.2-3.2-1.2-5.1s0.4-3.6,1.3-5.1
			c0.9-1.5,2.1-2.7,3.6-3.6c1.5-0.9,3.2-1.3,5.1-1.3s3.6,0.4,5,1.3c1.5,0.9,2.7,2.1,3.5,3.6c0.9,1.5,1.3,3.2,1.3,5.1h-1.4
			c0,1.9-0.4,3.6-1.2,5.1c-0.8,1.5-1.9,2.7-3.3,3.6C261,28.5,259.4,29,257.7,29z M258.4,25.7c1.2,0,2.3-0.3,3.3-0.9s1.7-1.4,2.3-2.4
			c0.6-1,0.8-2.2,0.8-3.4c0-1.3-0.3-2.5-0.8-3.5c-0.6-1-1.3-1.8-2.3-2.4c-1-0.6-2.1-0.9-3.3-0.9c-1.2,0-2.3,0.3-3.3,0.9
			c-1,0.6-1.7,1.4-2.3,2.4S252,17.7,252,19s0.3,2.4,0.8,3.4c0.6,1,1.3,1.8,2.3,2.4C256.1,25.4,257.2,25.7,258.4,25.7z M266.4,28.9
			c-0.5,0-1-0.2-1.3-0.5s-0.5-0.8-0.5-1.3v-5.5l0.7-3.8l3,1.3v8c0,0.5-0.2,1-0.5,1.3C267.4,28.7,267,28.9,266.4,28.9z"/>
		<path id="t" class="st0" d="M272.9,12.9c-0.5,0-0.9-0.1-1.2-0.4c-0.3-0.3-0.5-0.6-0.5-1.1s0.2-0.9,0.5-1.2s0.7-0.4,1.2-0.4h8.3
			c0.5,0,0.9,0.1,1.2,0.4c0.3,0.3,0.5,0.7,0.5,1.2c0,0.4-0.2,0.8-0.5,1.1s-0.7,0.4-1.2,0.4H272.9z M280.9,28.8
			c-1.2,0-2.3-0.3-3.2-0.9c-1-0.6-1.7-1.4-2.3-2.5c-0.6-1.1-0.8-2.2-0.8-3.6V4.7c0-0.5,0.2-1,0.5-1.3s0.8-0.5,1.3-0.5s1,0.2,1.3,0.5
			s0.5,0.8,0.5,1.3v17.2c0,1,0.3,1.8,0.8,2.4s1.2,1,1.9,1h1.2c0.4,0,0.8,0.2,1.1,0.5c0.3,0.3,0.4,0.8,0.4,1.3s-0.2,1-0.6,1.3
			s-0.9,0.5-1.5,0.5L280.9,28.8L280.9,28.8z"/>
		<path id="e_1_" class="st0" d="M297.4,29c-2,0-3.8-0.4-5.3-1.3s-2.8-2-3.6-3.5c-0.9-1.5-1.3-3.2-1.3-5.2s0.4-3.7,1.2-5.2
			c0.8-1.5,2-2.7,3.4-3.5c1.5-0.9,3.1-1.3,5-1.3s3.5,0.4,4.8,1.2s2.4,2,3.1,3.4c0.7,1.5,1.1,3.1,1.1,5c0,0.5-0.2,0.8-0.5,1.1
			c-0.3,0.3-0.7,0.5-1.2,0.5h-14.5v-2.9H304l-1.5,1c0-1.2-0.3-2.3-0.7-3.2c-0.5-0.9-1.1-1.7-1.9-2.3S298,12,296.8,12
			c-1.4,0-2.5,0.3-3.5,0.9c-1,0.6-1.7,1.4-2.2,2.5s-0.8,2.2-0.8,3.5c0,1.3,0.3,2.5,0.9,3.5s1.4,1.8,2.5,2.4s2.3,0.9,3.6,0.9
			c0.7,0,1.5-0.1,2.3-0.4s1.4-0.6,1.9-1c0.4-0.3,0.7-0.4,1.2-0.4c0.4,0,0.8,0.1,1.1,0.4c0.4,0.4,0.6,0.8,0.6,1.2
			c0,0.4-0.2,0.8-0.6,1.1c-0.8,0.6-1.8,1.2-3,1.6C299.7,28.8,298.5,29,297.4,29z"/>
		<path id="d" class="st0" d="M318.7,29c-1.9,0-3.6-0.4-5.1-1.3s-2.7-2.1-3.6-3.6s-1.3-3.2-1.3-5.1s0.4-3.6,1.2-5.1
			c0.8-1.5,1.9-2.7,3.3-3.6c1.4-0.9,3-1.3,4.7-1.3c1.4,0,2.7,0.3,3.9,0.9c1.2,0.6,2.2,1.4,3,2.4V2.5c0-0.6,0.2-1,0.5-1.3
			s0.8-0.5,1.3-0.5c0.6,0,1,0.2,1.3,0.5s0.5,0.8,0.5,1.3v16.4c0,1.9-0.4,3.6-1.3,5.1s-2.1,2.7-3.5,3.6C322.3,28.5,320.6,29,318.7,29
			z M318.7,25.7c1.2,0,2.3-0.3,3.3-0.9s1.7-1.4,2.3-2.4c0.6-1,0.8-2.2,0.8-3.5s-0.3-2.4-0.8-3.5c-0.6-1-1.3-1.8-2.3-2.4
			c-1-0.6-2.1-0.9-3.3-0.9c-1.2,0-2.3,0.3-3.3,0.9c-1,0.6-1.7,1.4-2.3,2.4c-0.6,1-0.8,2.2-0.8,3.5s0.3,2.4,0.8,3.5
			c0.6,1,1.3,1.8,2.3,2.4C316.5,25.4,317.5,25.7,318.7,25.7z"/>
	</g>
	<g id="checkbox">
		<path id="c_1_" class="st0" d="M354.6,29c-1.9,0-3.6-0.4-5.1-1.3s-2.7-2.1-3.5-3.6c-0.9-1.5-1.3-3.2-1.3-5.1s0.4-3.7,1.3-5.2
			c0.8-1.5,2-2.7,3.5-3.5c1.5-0.9,3.1-1.3,5-1.3c1.4,0,2.7,0.3,3.9,0.8c1.2,0.5,2.2,1.4,3.2,2.4c0.3,0.4,0.5,0.8,0.4,1.2
			s-0.4,0.8-0.8,1.1c-0.3,0.2-0.7,0.3-1.1,0.2s-0.8-0.3-1.1-0.6c-1.2-1.2-2.6-1.9-4.4-1.9c-1.2,0-2.3,0.3-3.2,0.8
			c-0.9,0.6-1.7,1.4-2.2,2.4s-0.8,2.2-0.8,3.6c0,1.3,0.3,2.4,0.8,3.5c0.5,1,1.3,1.8,2.3,2.4s2.1,0.9,3.3,0.9c0.8,0,1.6-0.1,2.2-0.3
			c0.6-0.2,1.2-0.5,1.7-1c0.4-0.3,0.8-0.5,1.2-0.5c0.4,0,0.8,0.1,1.1,0.3c0.4,0.3,0.6,0.7,0.7,1.1c0,0.4-0.1,0.8-0.4,1.1
			C359.4,28.2,357.2,29,354.6,29z"/>
		<path id="h" class="st0" d="M369.1,21.7c-0.5,0-1-0.2-1.3-0.5s-0.5-0.8-0.5-1.3V2.5c0-0.6,0.2-1,0.5-1.3s0.8-0.5,1.3-0.5
			c0.6,0,1,0.2,1.3,0.5s0.5,0.8,0.5,1.3v17.3c0,0.5-0.2,1-0.5,1.3C370.1,21.5,369.7,21.7,369.1,21.7z M369.1,28.9
			c-0.5,0-1-0.2-1.3-0.5s-0.5-0.8-0.5-1.3V11c0-0.6,0.2-1,0.5-1.3s0.8-0.5,1.3-0.5c0.6,0,1,0.2,1.3,0.5s0.5,0.8,0.5,1.3v16.1
			c0,0.5-0.2,1-0.5,1.3S369.7,28.9,369.1,28.9z M383.9,28.9c-0.5,0-1-0.2-1.3-0.5s-0.5-0.8-0.5-1.3v-8.9c0-1.4-0.3-2.5-0.8-3.3
			c-0.5-0.9-1.2-1.5-2-1.9c-0.9-0.4-1.8-0.6-2.9-0.6c-1,0-1.9,0.2-2.7,0.6c-0.8,0.4-1.5,1-1.9,1.6c-0.5,0.7-0.7,1.5-0.7,2.4h-2.3
			c0-1.5,0.4-2.9,1.1-4c0.7-1.2,1.7-2.1,3-2.8s2.7-1,4.3-1c1.7,0,3.1,0.4,4.4,1.1c1.3,0.7,2.3,1.7,3.1,3.1c0.8,1.4,1.1,3,1.1,5v8.9
			c0,0.5-0.2,1-0.5,1.3C384.9,28.7,384.5,28.9,383.9,28.9z"/>
		<path id="e" class="st0" d="M401.2,29c-2,0-3.8-0.4-5.3-1.3s-2.8-2-3.6-3.5c-0.9-1.5-1.3-3.2-1.3-5.2s0.4-3.7,1.2-5.2
			c0.8-1.5,2-2.7,3.4-3.5c1.5-0.9,3.1-1.3,5-1.3s3.5,0.4,4.8,1.2s2.4,2,3.1,3.4c0.7,1.5,1.1,3.1,1.1,5c0,0.5-0.2,0.8-0.5,1.1
			c-0.3,0.3-0.7,0.5-1.2,0.5h-14.5v-2.9h14.4l-1.5,1c0-1.2-0.3-2.3-0.7-3.2c-0.5-0.9-1.1-1.7-1.9-2.3s-1.9-0.8-3.1-0.8
			c-1.4,0-2.5,0.3-3.5,0.9c-1,0.6-1.7,1.4-2.2,2.5s-0.8,2.2-0.8,3.5c0,1.3,0.3,2.5,0.9,3.5s1.4,1.8,2.5,2.4s2.3,0.9,3.6,0.9
			c0.7,0,1.5-0.1,2.3-0.4s1.4-0.6,1.9-1c0.4-0.3,0.7-0.4,1.2-0.4c0.4,0,0.8,0.1,1.1,0.4c0.4,0.4,0.6,0.8,0.6,1.2
			c0,0.4-0.2,0.8-0.6,1.1c-0.8,0.6-1.8,1.2-3,1.6C403.4,28.8,402.3,29,401.2,29z"/>
		<path id="c" class="st0" d="M422.5,29c-1.9,0-3.6-0.4-5.1-1.3s-2.7-2.1-3.5-3.6c-0.9-1.5-1.3-3.2-1.3-5.1s0.4-3.7,1.3-5.2
			c0.8-1.5,2-2.7,3.5-3.5c1.5-0.9,3.1-1.3,5-1.3c1.4,0,2.7,0.3,3.9,0.8c1.2,0.5,2.2,1.4,3.2,2.4c0.3,0.4,0.5,0.8,0.4,1.2
			s-0.4,0.8-0.8,1.1c-0.3,0.2-0.7,0.3-1.1,0.2s-0.8-0.3-1.1-0.6c-1.2-1.2-2.6-1.9-4.4-1.9c-1.2,0-2.3,0.3-3.2,0.8
			c-0.9,0.6-1.7,1.4-2.2,2.4s-0.8,2.2-0.8,3.6c0,1.3,0.3,2.4,0.8,3.5c0.5,1,1.3,1.8,2.3,2.4s2.1,0.9,3.3,0.9c0.8,0,1.6-0.1,2.2-0.3
			c0.6-0.2,1.2-0.5,1.7-1c0.4-0.3,0.8-0.5,1.2-0.5c0.4,0,0.8,0.1,1.1,0.3c0.4,0.3,0.6,0.7,0.7,1.1c0,0.4-0.1,0.8-0.4,1.1
			C427.2,28.2,425.1,29,422.5,29z"/>
		<path id="k" class="st0" d="M436.9,28.8c-0.5,0-1-0.2-1.3-0.5s-0.5-0.8-0.5-1.3V2.5c0-0.5,0.2-1,0.5-1.3s0.7-0.5,1.3-0.5
			c0.5,0,1,0.2,1.3,0.5s0.5,0.8,0.5,1.3v24.6c0,0.5-0.2,1-0.5,1.3C437.9,28.7,437.5,28.8,436.9,28.8z M438.6,21.6l-2.2-2.4l11.1-9.9
			c0.4-0.3,0.8-0.5,1.2-0.5c0.4,0,0.8,0.2,1.1,0.6c0.3,0.4,0.5,0.8,0.5,1.2s-0.2,0.8-0.6,1.2L438.6,21.6z M449.8,28.6
			c-0.4,0.3-0.8,0.5-1.3,0.4c-0.5,0-0.9-0.2-1.2-0.6l-7.3-9l2.5-2.4l7.5,9.2c0.3,0.4,0.5,0.8,0.4,1.2
			C450.4,27.9,450.2,28.3,449.8,28.6z"/>
		<path id="x" class="st0" d="M517.3,28.8c-0.2,0-0.5,0-0.7-0.1s-0.4-0.2-0.6-0.5l-6.3-7.6l-1.3-1.3l-6.3-7.4
			c-0.3-0.4-0.5-0.8-0.5-1.2s0.1-0.8,0.4-1.1s0.7-0.5,1.2-0.5c0.6,0,1,0.2,1.4,0.6l6.2,7.3l0.9,0.9l6.8,8.1c0.4,0.4,0.5,0.9,0.5,1.3
			s-0.2,0.8-0.5,1.1C518.2,28.7,517.8,28.8,517.3,28.8z M503.5,28.8c-0.5,0-0.9-0.1-1.1-0.5c-0.3-0.3-0.4-0.7-0.4-1.1
			s0.2-0.9,0.5-1.3l6.1-7.7l1.9,2.7l-5.7,7.2C504.5,28.6,504,28.8,503.5,28.8z M512.4,19.6l-2.5-2.1l5.8-7.7
			c0.2-0.2,0.4-0.4,0.6-0.5c0.2-0.1,0.5-0.1,0.7-0.1c0.5,0,0.9,0.2,1.2,0.5s0.4,0.7,0.4,1.2s-0.2,0.9-0.5,1.3L512.4,19.6z"/>
		<g id="b_x2B_o_x3D_checked">
			<path id="b-checked" class="st1" d="M466.7,9c-1.4,0-2.7,0.3-3.9,0.9l-2.3,1.2c-0.3,0.2-0.7-0.1-0.7-0.4v-8c0-0.6-0.2-1-0.5-1.3
				s-0.8-0.5-1.3-0.5s-1,0.2-1.3,0.5s-0.5,0.8-0.5,1.3v16.4c0,1.9,0.5,3.6,1.3,5.1c0.9,1.5,2,2.7,3.5,3.6c1.3,0.8,2.9,1.2,4.5,1.3
				h23.3v-20L466.7,9z"/>
			<g id="b_x2B_o-check">
				<path id="circle-checked" class="st2" d="M499.4,12.9c-1-1.7-2.4-3.1-4.1-4.1s-3.7-1.5-6-1.5s-4.3,0.5-6,1.5s-3.1,2.4-4.1,4.1
					s-1.5,3.8-1.5,6.1s0.5,4.3,1.5,6c1,1.7,2.4,3.1,4.1,4.1s3.7,1.5,6,1.5s4.3-0.5,6-1.5s3.1-2.4,4.1-4.1s1.5-3.8,1.5-6
					C500.9,16.7,500.4,14.7,499.4,12.9z"/>
				<g id="circle-shadow">
					
						<radialGradient id="shadow_1_" cx="489.4214" cy="1066.95" r="11.4427" gradientTransform="matrix(1 0 0 1 0 -1048)" gradientUnits="userSpaceOnUse">
						<stop  offset="0.7833" style="stop-color:#FFFFFF;stop-opacity:0"/>
						<stop  offset="0.8058" style="stop-color:#ECECEC;stop-opacity:2.121591e-02"/>
						<stop  offset="0.8514" style="stop-color:#BABABA;stop-opacity:6.435849e-02"/>
						<stop  offset="0.9162" style="stop-color:#6A6A6A;stop-opacity:0.1257"/>
						<stop  offset="0.9948" style="stop-color:#000000;stop-opacity:0.2"/>
					</radialGradient>
					<path id="shadow" class="st3" d="M499.4,12.9c-1-1.7-2.4-3.1-4.1-4.1s-3.7-1.5-6-1.5s-4.3,0.5-6,1.5s-3.1,2.4-4.1,4.1
						s-1.5,3.8-1.5,6.1s0.5,4.3,1.5,6c1,1.7,2.4,3.1,4.1,4.1s3.7,1.5,6,1.5s4.3-0.5,6-1.5s3.1-2.4,4.1-4.1s1.5-3.8,1.5-6
						C500.9,16.7,500.4,14.7,499.4,12.9z"/>
				</g>
			</g>
		</g>
	</g>
</g>
</svg>
